<svg width="256" height="160" viewBox="0 0 256 160" fill="none" xmlns="http://www.w3.org/2000/svg">
<g clip-path="url(#clip0_1_712)">
<rect width="256" height="160" rx="15" fill="#282828"/>
<path opacity="0.05" d="M156.952 69.9881L225.135 77.1594L106.913 116.853L156.952 69.9881Z" fill="#66625B"/>
<path opacity="0.05" d="M220.231 56.5803L322.302 83.5629L273.648 161.563L220.231 56.5803Z" fill="#A8A5A2"/>
<path opacity="0.05" d="M127.83 34.2605L54.0049 97.9328L30.3745 36.8599L127.83 34.2605Z" fill="#A8A5A2"/>
<path opacity="0.05" d="M84.2393 51.8288L139.788 50.8252L102.156 104.418L84.2393 51.8288Z" fill="#A8A5A2"/>
<path opacity="0.4" d="M68.3861 31.3105L189.231 156.521L104.427 188.525L68.3861 31.3105Z" fill="#1D1D1D"/>
<path opacity="0.05" d="M82.9774 113.842L103.806 165.568L27.6424 106.953L82.9774 113.842Z" fill="#A8A5A2"/>
<path opacity="0.05" d="M193.091 63.5004L193.091 148.894L133 131.5L193.091 63.5004Z" fill="#A8A5A2"/>
<path opacity="0.3" d="M-5.57042 31.1522L57.9982 -11.0358L51.8528 76.6396L-5.57042 31.1522Z" fill="#1D1D1D"/>
<path opacity="0.3" d="M86.1411 125.796L52.1017 178.376L-5.10693 146.874L86.1411 125.796Z" fill="#1D1D1D"/>
<path opacity="0.3" d="M183 116.66L221.553 57.1933L293.582 116.557L183 116.66Z" fill="#1D1D1D"/>
<path opacity="0.2" d="M127 89.5003L32.5 160.5L-3.86191 69.8802L127 89.5003Z" fill="#353535"/>
<path opacity="0.05" d="M152.641 26.1078L121.791 -19.9615L204.308 5.99157L152.641 26.1078Z" fill="#A8A5A2"/>
<path opacity="0.05" d="M232.879 162.031L239.712 221.332L173.805 170.61L232.879 162.031Z" fill="#A8A5A2"/>
<g clip-path="url(#clip1_1_712)">
<path d="M228.347 129.628C227.185 129.204 225.957 128.992 224.72 129C220.721 129 217.896 131.015 217.876 133.907C217.851 136.032 219.883 137.229 221.421 137.939C222.998 138.669 223.525 139.129 223.52 139.781C223.51 140.773 222.26 141.223 221.098 141.223C219.501 141.223 218.629 141.001 217.286 140.444L216.789 140.211L216.221 143.541C217.194 143.946 218.946 144.293 220.756 144.323C225.008 144.323 227.787 142.321 227.82 139.244C227.855 137.546 226.755 136.264 224.44 135.204C223.033 134.517 222.16 134.057 222.16 133.36C222.16 132.742 222.908 132.082 224.47 132.082C225.51 132.057 226.543 132.252 227.502 132.655L227.877 132.822L228.445 129.605L228.347 129.628ZM238.725 129.27H235.601C234.629 129.27 233.896 129.538 233.471 130.503L227.462 144.115H231.714L232.564 141.883L237.753 141.888C237.876 142.411 238.251 144.115 238.251 144.115H242L238.725 129.27ZM212.124 129.145H216.176L213.642 143.998H209.595L210.86 136.569L212.124 129.14V129.145ZM201.839 137.331L202.258 139.394L206.218 129.27H210.51L204.133 144.095H199.851L196.352 131.542C196.295 131.335 196.162 131.158 195.979 131.045C194.718 130.393 193.382 129.899 192 129.573L192.055 129.26H198.577C199.461 129.295 200.174 129.573 200.411 130.518L201.836 137.339L201.839 137.331ZM233.726 138.846L235.341 134.692C235.321 134.737 235.673 133.835 235.878 133.277L236.156 134.559L237.093 138.844H233.724L233.726 138.846Z" fill="#FDFDFD"/>
</g>
<g clip-path="url(#clip2_1_712)">
<path d="M177.613 37.902C177.419 38.0312 177.484 38.1604 177.677 38.225C177.871 38.2896 178.129 38.1604 178.387 37.9666C178.516 37.8374 178.645 37.7081 178.839 37.5789C178.968 37.4497 179.032 37.2559 179.032 37.1267C178.968 37.1913 178.839 37.1913 178.774 37.2559C178.645 37.3205 178.581 37.3205 178.516 37.3851C178.194 37.4497 177.871 37.6435 177.613 37.902ZM181.871 37.5143C182.194 37.5789 182.129 37.7081 181.742 37.9666C181.548 38.0958 181.355 38.1604 181.226 38.225C181.097 38.2896 180.968 38.3542 180.903 38.4188C180.774 38.4834 180.71 38.548 180.581 38.6127C180.452 38.6773 180.323 38.7419 180.129 38.8711C179.548 39.1295 179.161 39.3879 178.839 39.5172C178.516 39.6464 178.258 39.711 177.871 39.7756C177.677 39.7756 177.419 39.7756 177.161 39.711C176.903 39.6464 176.774 39.5172 176.645 39.3879C176.581 39.2587 176.516 39.1941 176.516 39.0649C176.516 38.9357 176.516 38.8711 176.581 38.7419C176.71 38.4188 176.903 38.1604 177.161 37.902C177.419 37.6435 177.742 37.3851 178.194 37.1913C178.323 37.1267 178.452 37.0621 178.71 36.9975C178.903 36.9329 179.161 36.9329 179.355 36.9329C179.484 36.9329 179.548 36.9975 179.613 37.0621C179.677 37.1267 179.677 37.1913 179.613 37.2559C179.613 37.3851 179.548 37.4497 179.419 37.6435C179.29 37.7728 179.226 37.902 179.032 38.0312C178.903 38.1604 178.71 38.2896 178.516 38.3542C178.323 38.4188 178.129 38.4834 177.935 38.4834C177.806 38.4834 177.677 38.4834 177.613 38.4188C177.484 38.4188 177.419 38.3542 177.355 38.2896C177.29 38.4188 177.226 38.548 177.161 38.6773C177.097 38.8065 177.097 38.9357 177.097 39.1295C177.097 39.2587 177.161 39.3233 177.29 39.3879C177.355 39.4525 177.548 39.5172 177.871 39.4525C178.064 39.4525 178.258 39.3879 178.452 39.3233C178.645 39.2587 178.774 39.1941 178.968 39.0649C179.355 38.8711 179.677 38.7419 179.935 38.6127C180.194 38.4834 180.452 38.3542 180.645 38.225C180.839 38.0958 181.097 38.0312 181.29 37.902C181.419 37.7728 181.613 37.6435 181.871 37.5143Z" fill="#FBF8F3"/>
<path d="M185.097 36.2867C185.032 36.2867 185.032 36.2867 184.968 36.3513C184.903 36.4159 184.903 36.4159 184.903 36.4805C184.839 36.5451 184.839 36.6097 184.839 36.7389L185.032 36.5451C185.097 36.4805 185.097 36.4159 185.161 36.4159C185.097 36.2867 185.097 36.2867 185.097 36.2867ZM187.677 37.5142C187.742 37.5788 187.806 37.6434 187.742 37.708C187.677 37.7726 187.613 37.7726 187.548 37.7726C187.29 37.8372 187.032 37.9018 186.774 37.9018C186.516 37.9664 186.258 37.9664 186.065 38.0311C185.806 38.0957 185.484 38.0957 185.226 38.0311C184.968 37.9664 184.71 37.9018 184.581 37.7726C184.516 37.708 184.452 37.708 184.452 37.6434C184.323 37.7726 184.129 37.9664 184 38.0957C183.806 38.2249 183.677 38.3541 183.484 38.4833C183.226 38.6771 182.968 38.8709 182.645 39.0002C182.581 39.0648 182.452 39.1294 182.323 39.1294C182.065 39.2586 181.871 39.2586 181.742 39.2586C181.548 39.2586 181.484 39.194 181.355 39.1294C181.29 39.0648 181.226 39.0002 181.226 38.9356C181.226 38.8709 181.226 38.8063 181.226 38.6771C181.226 38.6125 181.226 38.5479 181.29 38.4833C181.29 38.4187 181.355 38.3541 181.419 38.1603C181.484 37.9664 181.613 37.8372 181.677 37.6434C181.806 37.4496 181.936 37.3204 182 37.1912C182.129 37.0619 182.258 36.9973 182.387 37.0619C182.516 37.1266 182.516 37.1266 182.516 37.1912C182.452 37.2558 182.387 37.385 182.258 37.5142C182.194 37.6434 182.065 37.7726 182.065 37.8372C182 37.9018 181.936 38.0311 181.871 38.1603C181.871 38.2249 181.806 38.2249 181.806 38.3541C181.742 38.4187 181.742 38.4833 181.742 38.6125C181.742 38.6771 181.677 38.8063 181.677 38.8709C181.677 38.9356 181.677 39.0002 181.742 39.0002C181.806 39.0002 181.871 39.0002 182 38.9356C182.129 38.8709 182.194 38.8063 182.323 38.7417C182.452 38.6771 182.581 38.5479 182.774 38.4187C183.032 38.2895 183.226 38.1603 183.419 37.9664L184 37.4496C184 37.385 184.065 37.385 184.129 37.3204C184.194 37.2558 184.194 37.2558 184.258 37.1912C184.323 37.1912 184.323 37.1266 184.323 37.1266C184.323 37.1266 184.323 37.0619 184.387 37.0619C184.387 36.8681 184.387 36.6743 184.516 36.4159C184.516 36.2867 184.581 36.2221 184.645 36.1574C184.71 36.0928 184.774 36.0282 184.839 36.0282C184.903 35.9636 184.968 35.9636 185.032 35.9636C185.161 35.9636 185.226 35.9636 185.29 35.9636C185.484 35.9636 185.613 36.0928 185.677 36.2221C185.742 36.3513 185.677 36.4805 185.613 36.5451C185.484 36.6743 185.355 36.8035 185.226 36.9327C185.032 37.1266 184.968 37.2558 184.968 37.3204C184.968 37.4496 185.032 37.5142 185.161 37.5788C185.29 37.6434 185.484 37.708 185.677 37.708C185.742 37.708 185.936 37.708 186.129 37.6434C186.387 37.6434 186.581 37.5788 186.839 37.5142C187.032 37.6434 187.355 37.5788 187.677 37.5142Z" fill="#FBF8F3"/>
<path d="M187.806 37.902C187.613 38.0312 187.677 38.1604 187.871 38.225C188.064 38.2896 188.323 38.1604 188.581 37.9666C188.71 37.8374 188.839 37.7081 189.032 37.5789C189.226 37.4497 189.226 37.2559 189.226 37.1267C189.161 37.1913 189.032 37.1913 188.968 37.2559C188.839 37.3205 188.774 37.3205 188.71 37.3851C188.323 37.4497 188.064 37.6435 187.806 37.902ZM192 37.5143C192.323 37.5789 192.258 37.7081 191.871 37.9666C191.677 38.0958 191.484 38.1604 191.355 38.225C191.226 38.2896 191.097 38.3542 191.032 38.4188C190.903 38.4834 190.839 38.548 190.71 38.6127C190.581 38.6773 190.452 38.7419 190.258 38.8711C189.677 39.1295 189.29 39.3879 188.968 39.5172C188.645 39.6464 188.387 39.711 188 39.7756C187.806 39.7756 187.548 39.7756 187.29 39.711C187.032 39.6464 186.903 39.5172 186.774 39.3879C186.71 39.2587 186.645 39.1941 186.645 39.0649C186.645 38.9357 186.645 38.8711 186.71 38.7419C186.839 38.4188 187.032 38.1604 187.29 37.902C187.548 37.6435 187.871 37.3851 188.323 37.1913C188.452 37.1267 188.581 37.0621 188.839 36.9975C189.032 36.9329 189.29 36.9329 189.484 36.9329C189.613 36.9329 189.677 36.9975 189.742 37.0621C189.806 37.1267 189.806 37.1913 189.742 37.2559C189.742 37.3851 189.677 37.4497 189.548 37.6435C189.419 37.7728 189.355 37.902 189.161 38.0312C189.032 38.1604 188.839 38.2896 188.645 38.3542C188.452 38.4188 188.258 38.4834 188.064 38.4834C187.935 38.4834 187.806 38.4834 187.742 38.4188C187.613 38.4188 187.548 38.3542 187.484 38.2896C187.419 38.4188 187.355 38.548 187.29 38.6773C187.226 38.8065 187.226 38.9357 187.226 39.1295C187.226 39.2587 187.29 39.3233 187.419 39.3879C187.484 39.4525 187.677 39.5172 188 39.4525C188.194 39.4525 188.387 39.3879 188.581 39.3233C188.774 39.2587 188.903 39.1941 189.097 39.0649C189.484 38.8711 189.806 38.7419 190.064 38.6127C190.323 38.4834 190.581 38.3542 190.774 38.225C190.968 38.0958 191.226 38.0312 191.419 37.902C191.548 37.7728 191.742 37.6435 192 37.5143Z" fill="#FBF8F3"/>
<path d="M191.742 37.6435C191.742 37.6435 191.613 37.7081 192 37.4497C192.452 37.1913 192.323 37.1913 192.516 37.2559C192.71 37.3205 192.516 37.5789 192.516 37.5789C192.71 37.7081 192.903 37.7727 192.968 37.8373C193.226 38.0312 193.355 38.225 193.355 38.4188C193.355 38.548 193.355 38.6126 193.29 38.6772C193.29 38.7418 193.226 38.8064 193.161 38.9357C193.161 38.9357 193.097 39.0003 193.097 39.1295C193.097 39.2587 193.032 39.3233 193.097 39.3233C193.161 39.3233 193.226 39.3233 193.355 39.3233C193.484 39.2587 193.548 39.2587 193.677 39.1941C193.806 39.1295 193.936 39.1295 194.065 39.0649C194.194 39.0003 194.323 38.9357 194.452 38.871C194.581 38.8064 194.71 38.7418 194.839 38.6772C194.903 38.6772 194.968 38.6126 195.226 38.4834C195.419 38.3542 195.613 38.225 195.806 38.1604C195.936 38.0958 196.065 37.9665 196.194 37.9019C196.323 37.8373 196.452 37.7727 196.452 37.7081L196.839 37.4497C196.903 37.4497 196.968 37.5143 197.032 37.5143C197.161 37.5789 197.161 37.6435 197.097 37.6435C197.032 37.6435 196.968 37.7081 196.903 37.7727C196.774 37.9019 196.645 37.9665 196.452 38.0958L195.871 38.4834C195.613 38.6126 195.355 38.8064 195.097 38.9357C194.839 39.0649 194.581 39.1941 194.258 39.3233C194.065 39.3879 193.871 39.4525 193.613 39.5171C193.355 39.5817 193.097 39.5817 192.839 39.5817C192.645 39.5171 192.581 39.5171 192.516 39.4525C192.452 39.3879 192.452 39.3233 192.452 39.2587C192.452 39.1941 192.452 39.1295 192.516 39.0003C192.581 38.9357 192.581 38.871 192.581 38.8064C192.645 38.6772 192.645 38.548 192.645 38.3542C192.645 38.225 192.516 38.0958 192.323 37.9665C192.194 37.9019 192.129 37.8373 192.065 37.8373C192 37.7727 191.871 37.7081 191.806 37.7081L191.742 37.6435Z" fill="#FBF8F3"/>
<path d="M200.581 37.3204C200.71 37.385 200.774 37.4496 200.71 37.5142C200.645 37.6434 200.581 37.7726 200.452 37.9018C200.323 38.0311 200.258 38.1603 200.129 38.2895C199.355 39.3232 197.871 42.0367 197.806 42.1659C197.742 42.2951 197.742 42.3597 197.742 42.3597C197.742 42.4244 197.677 42.489 197.548 42.4244C197.419 42.4244 197.355 42.3597 197.29 42.2951C197.29 42.2305 197.29 42.1659 197.29 42.1659C197.355 42.0367 199.484 38.4833 199.484 38.4833C199.548 38.4187 199.548 38.3541 199.613 38.2895C199.677 38.2249 199.677 38.1603 199.742 38.0957C199.742 38.0957 199.742 38.0311 199.806 38.0311C199.806 38.0311 199.806 37.9665 199.871 37.9665L200 37.8372H199.936H199.871C199.806 37.8372 199.806 37.9018 199.742 37.9018C199.677 37.9018 199.613 37.9665 199.613 37.9665C199.419 38.0311 199.226 38.1603 199.097 38.2249C198.968 38.2895 198.71 38.4187 198.516 38.4833C198.387 38.5479 198.258 38.5479 198.129 38.6125C198 38.6771 197.806 38.6771 197.677 38.6771C197.484 38.6771 197.29 38.6771 197.097 38.6125C196.903 38.5479 196.774 38.4187 196.774 38.2895C196.71 38.1603 196.71 38.0311 196.774 37.9018C196.774 37.7726 196.839 37.708 196.903 37.5788C196.968 37.4496 197.032 37.385 197.226 37.3204C197.355 37.3204 197.419 37.3204 197.484 37.3204C197.613 37.385 197.613 37.4496 197.548 37.5142C197.484 37.5788 197.419 37.6434 197.419 37.708C197.355 37.7726 197.355 37.8372 197.355 37.9665C197.355 38.0311 197.29 38.0957 197.29 38.2249C197.29 38.2895 197.29 38.3541 197.355 38.4187C197.355 38.4833 197.484 38.5479 197.613 38.5479C197.806 38.5479 198 38.5479 198.129 38.4833C198.323 38.4187 198.452 38.3541 198.581 38.2895C198.774 38.2249 198.968 38.1603 199.161 38.0957C199.355 38.0311 199.484 37.9018 199.677 37.8372C199.806 37.7726 199.936 37.708 200.065 37.6434C200.194 37.5788 200.323 37.5142 200.452 37.4496C200.516 37.4496 200.516 37.4496 200.516 37.4496C200.516 37.4496 200.516 37.4496 200.581 37.4496C200.323 37.2558 200.452 37.2558 200.581 37.3204Z" fill="#FBF8F3"/>
<path d="M221.226 35.6405C221.355 35.7051 221.355 35.7697 221.29 35.8343C221.161 35.8989 221.097 35.8989 220.968 35.8343C220.903 35.7697 220.839 35.7697 220.71 35.7697C219.419 35.7051 218.065 35.6405 216.774 35.5759C215.484 35.5113 214.129 35.5113 212.774 35.4467C211.613 35.4467 210.452 35.4467 209.355 35.4467C208.194 35.4467 207.097 35.4467 205.935 35.5113C205.742 35.5113 205.548 35.5113 205.355 35.5113C205.161 35.5113 204.968 35.5113 204.774 35.5113H204.516C204.387 35.5113 204.129 35.5113 204.065 35.5113C203.806 35.8989 199.613 43.5226 199.613 43.5226C199.613 43.5872 199.548 43.6518 199.484 43.6518C199.419 43.7164 199.484 43.781 199.29 43.7164C199.226 43.7164 199.161 43.6518 199.161 43.6518C199.097 43.5872 199.097 43.5226 199.161 43.3934C199.226 43.2642 199.29 43.1996 199.355 43.0704C199.677 42.5535 202.71 36.868 202.903 36.6096C203.032 36.3512 203.161 36.1574 203.355 35.8989C203.419 35.8343 203.419 35.7697 203.484 35.7051C203.548 35.6405 203.548 35.5759 203.613 35.5113C203.355 35.5113 203.161 35.5113 202.968 35.5113C202.774 35.5113 202.645 35.5113 202.452 35.5113H202C201.806 35.5113 201.548 35.5113 201.355 35.5113C201.161 35.5113 200.968 35.5113 200.71 35.5113H199.613H198.968C198.774 35.5113 198.516 35.5113 198.323 35.4467C198.194 35.4467 198.065 35.3821 198 35.3821C197.871 35.3175 197.871 35.2529 197.871 35.1883L197.935 35.1237C198 35.1237 198 35.059 198.065 35.059C198.194 34.9944 198.323 34.9944 198.387 34.9944C198.516 34.9944 198.581 34.9944 198.581 35.059C198.645 35.1237 198.581 35.1237 198.516 35.1883C198.452 35.1883 198.452 35.2529 198.323 35.2529C198.258 35.2529 198.258 35.2529 198.258 35.2529H198.194C198.258 35.2529 198.323 35.3175 198.387 35.3175C198.581 35.3175 198.71 35.3175 198.839 35.3175C198.968 35.3175 199.161 35.3175 199.29 35.3175H199.871C200.065 35.3175 200.258 35.3175 200.452 35.3175H201.097C201.29 35.3175 201.484 35.3175 201.677 35.3175C201.742 35.3175 201.935 35.3175 202.129 35.3175C202.323 35.3175 202.581 35.3175 202.774 35.3175C203.032 35.3175 203.355 35.3175 203.613 35.2529C203.677 35.1237 203.742 35.059 203.806 34.9298C203.871 34.8006 203.935 34.736 204 34.6068C204.065 34.4776 204.194 34.3484 204.258 34.2191C204.323 34.0899 204.452 33.9607 204.516 33.8315L205.032 33.1208C205.097 32.9916 205.226 32.8624 205.355 32.7332C205.355 32.6686 205.419 32.6686 205.419 32.6686C205.419 32.604 205.484 32.604 205.548 32.6686C205.613 32.6686 205.677 32.6686 205.742 32.7332C205.806 32.7978 205.806 32.8624 205.742 32.927C205.742 32.927 205.419 33.3146 205.355 33.4439C205.29 33.5731 204.323 34.9298 204.129 35.2529H204.839H205.355C205.548 35.2529 205.677 35.2529 205.871 35.2529C207.226 35.2529 208.516 35.1883 209.806 35.1883C211.097 35.1883 212.452 35.1883 213.742 35.2529C214.903 35.2529 216.065 35.3175 217.161 35.3821C218.323 35.4467 219.419 35.5113 220.581 35.5759C220.645 35.5759 220.645 35.5759 220.71 35.5759C220.774 35.5759 220.839 35.5759 220.903 35.6405C221.097 35.6405 221.161 35.6405 221.226 35.6405Z" fill="#FBF8F3"/>
<path d="M205.355 37.7726C205.29 37.9018 205.226 38.031 205.161 38.0956C205.097 38.2249 205.032 38.2895 204.968 38.4187C205.032 38.3541 205.097 38.3541 205.097 38.2895C205.097 38.2249 205.161 38.2249 205.226 38.1602C205.29 38.0956 205.29 38.0956 205.355 38.0956C205.484 37.9664 205.613 37.8372 205.742 37.7726C205.871 37.6434 206.065 37.5788 206.194 37.4496C206.323 37.385 206.452 37.3204 206.516 37.2557C206.774 37.1911 207.032 37.1911 207.226 37.3203C207.355 37.385 207.419 37.4496 207.419 37.5142C207.419 37.5788 207.419 37.708 207.419 37.7726C207.419 37.9664 207.355 38.0956 207.29 38.2895C207.226 38.4833 207.161 38.6125 207.097 38.8063C207.032 38.9355 207.032 39.0647 206.968 39.1294C206.968 39.194 206.968 39.3232 206.968 39.3878C206.968 39.4524 206.968 39.517 207.032 39.517C207.097 39.517 207.161 39.517 207.29 39.4524C207.419 39.3878 207.484 39.3232 207.613 39.2586C207.742 39.194 207.871 39.1294 208.065 39.0001C208.194 38.8709 208.387 38.8063 208.581 38.6771C208.774 38.5479 209.032 38.4187 209.161 38.2895C209.355 38.1602 209.613 38.031 209.871 37.8372C210.065 37.9018 210.129 37.9664 210.065 37.9664C210 38.031 210 38.031 209.935 38.0956C209.806 38.2249 209.613 38.3541 209.484 38.4833C209.29 38.6125 209.161 38.7417 208.968 38.8709C208.774 39.0001 208.581 39.1294 208.387 39.2586C208.194 39.3878 208.065 39.4524 207.935 39.517C207.871 39.5816 207.806 39.5816 207.742 39.6462C207.677 39.6462 207.613 39.7108 207.613 39.7108C207.548 39.7108 207.484 39.7754 207.419 39.7754C207.226 39.84 207.097 39.84 206.903 39.7754C206.71 39.7754 206.581 39.6462 206.581 39.517C206.516 39.4524 206.516 39.3878 206.516 39.2586C206.516 39.1294 206.581 39.0001 206.581 38.8709C206.581 38.7417 206.645 38.6125 206.71 38.4833C206.774 38.3541 206.774 38.2249 206.839 38.0956L206.903 37.7726C206.903 37.708 206.903 37.6434 206.903 37.5788C206.903 37.5142 206.839 37.4496 206.839 37.4496C206.774 37.4496 206.71 37.4496 206.581 37.5142C206.452 37.5788 206.387 37.6434 206.258 37.708C206.129 37.7726 206 37.9018 205.871 37.9664C205.806 37.9664 205.806 38.031 205.742 38.0956C205.677 38.1602 205.677 38.1602 205.613 38.2249C205.484 38.3541 205.355 38.4187 205.29 38.5479C205.226 38.6125 205.097 38.7417 204.968 38.8709C204.839 39.0001 204.774 39.0647 204.645 39.194C204.581 39.3232 204.452 39.3878 204.387 39.517C204.323 39.517 204.323 39.5816 204.323 39.5816C204.258 39.6462 204.129 39.6462 204 39.6462C203.871 39.5816 203.806 39.5816 203.806 39.517C203.806 39.4524 203.806 39.3878 203.871 39.2586L204.129 38.6125L204.452 37.9664C204.516 37.8372 204.581 37.708 204.645 37.6434C204.71 37.5142 204.774 37.4496 204.839 37.3203C204.903 37.1911 204.968 37.0619 205.032 36.9327C205.097 36.8035 205.226 36.6743 205.29 36.5451C205.355 36.4158 205.419 36.3512 205.419 36.222C205.484 36.0928 205.548 36.0282 205.548 35.9636C205.613 35.8344 205.677 35.7698 205.742 35.6406C205.806 35.5113 205.871 35.4467 205.935 35.3821C206 35.3175 206.065 35.1883 206.065 35.1237C206.129 35.0591 206.129 34.9299 206.194 34.8653L206.452 34.4776C206.516 34.413 206.581 34.3484 206.581 34.2838C206.645 34.2192 206.645 34.1546 206.71 34.09C206.774 33.9608 206.903 33.8316 206.968 33.7023C207.032 33.5731 207.097 33.4439 207.226 33.3147C207.29 33.1855 207.355 33.1209 207.419 32.9917C207.484 32.8624 207.548 32.7978 207.613 32.6686L208 32.1518C208 32.0872 208.065 32.0872 208.129 32.0226C208.194 31.9579 208.258 31.9579 208.258 31.8933C208.258 31.8933 208.258 31.8287 208.323 31.8287C208.387 31.7641 208.452 31.7641 208.516 31.8287C208.581 31.8287 208.645 31.8933 208.645 31.9579C208.581 32.0226 208.516 32.0872 208.516 32.1518C208.452 32.2164 208.387 32.3456 208.323 32.4102C208.258 32.4748 208.194 32.604 208.129 32.6686C208 32.8624 207.871 32.9917 207.806 33.1855C207.742 33.2501 207.677 33.3147 207.677 33.4439C207.677 33.5731 207.613 33.5731 207.548 33.7023C207.484 33.8316 207.419 33.9608 207.355 34.0254C207.29 34.1546 207.226 34.2192 207.161 34.3484C207.032 34.6068 206.839 34.8653 206.71 35.1237C206.645 35.2529 206.581 35.3821 206.452 35.5113C206.387 35.6406 206.258 35.7698 206.194 35.9636C206.129 36.0928 206.065 36.222 206 36.3512C205.935 36.4805 205.871 36.6097 205.806 36.7389L205.355 37.7726Z" fill="#FBF8F3"/>
<path d="M210.645 37.0619C210.516 37.0619 210.516 36.9973 210.516 36.9327C210.516 36.868 210.645 36.7388 210.645 36.6742C210.71 36.6096 210.774 36.6096 210.903 36.6096C210.968 36.6742 210.968 36.6742 210.968 36.7388L210.839 36.9327C210.774 37.0619 210.71 37.0619 210.645 37.0619ZM213.613 37.8372C213.742 37.9664 213.806 38.031 213.742 38.031C213.677 38.0956 213.484 38.1602 213.29 38.2894C213.097 38.354 212.903 38.4832 212.71 38.5478C212.516 38.6124 212.323 38.7417 212.129 38.8063C212 38.8709 211.871 38.9355 211.742 39.0001C211.613 39.0647 211.484 39.1293 211.355 39.1939C211.226 39.2585 211.097 39.3231 210.968 39.3231C210.839 39.3877 210.71 39.3877 210.581 39.4523C210.452 39.4523 210.387 39.4523 210.323 39.4523C210.258 39.4523 210.129 39.4523 210.065 39.4523C209.871 39.3877 209.742 39.3877 209.677 39.2585C209.548 39.1293 209.484 39.0001 209.548 38.8709C209.613 38.7417 209.677 38.5478 209.742 38.4832C209.806 38.2894 209.871 38.1602 209.935 38.0956C210 37.9664 210.065 37.8372 210.194 37.7079C210.258 37.6433 210.323 37.5787 210.387 37.5141C210.452 37.5141 210.452 37.4495 210.452 37.4495C210.516 37.4495 210.645 37.4495 210.71 37.4495C210.774 37.4495 210.839 37.5141 210.839 37.5141C210.839 37.5787 210.839 37.6433 210.71 37.7726C210.645 37.9018 210.581 38.031 210.516 38.0956C210.452 38.2248 210.323 38.354 210.323 38.4832C210.258 38.6124 210.194 38.7417 210.129 38.8709C210.065 39.0001 210.129 39.1293 210.258 39.1939C210.323 39.1939 210.452 39.1939 210.645 39.1293C210.839 39.0647 210.968 39.0001 211.032 38.9355C211.226 38.8709 211.484 38.7417 211.677 38.6771C211.871 38.6124 212.129 38.4832 212.323 38.4186C212.452 38.354 212.645 38.2894 212.774 38.2248C212.903 38.1602 213.097 38.0956 213.226 38.031C213.226 38.031 213.419 37.9018 213.613 37.8372Z" fill="#FBF8F3"/>
<path d="M215.871 39.194C216 39.1294 216.129 39.0648 216.258 39.0002C216.387 38.9356 216.452 38.9356 216.581 38.871C216.71 38.8064 216.903 38.7418 217.161 38.6126C217.419 38.4834 217.677 38.3541 217.936 38.2249C218.258 38.0957 218.581 37.9665 218.903 37.7727C219.032 37.8373 219.097 37.8373 219.032 37.9019L218.968 37.9665C218.839 38.0311 218.71 38.0957 218.581 38.1603C218.452 38.2249 218.387 38.2895 218.258 38.3541C218.129 38.4188 218.065 38.4834 217.936 38.548C217.806 38.6126 217.677 38.6772 217.548 38.7418C217.355 38.8064 217.226 38.871 217.097 38.9356C217.032 39.0002 216.903 39.0648 216.774 39.1294C216.645 39.194 216.516 39.2586 216.387 39.3233C216.258 39.3879 216.129 39.4525 216.065 39.4525C215.871 39.5171 215.742 39.5171 215.613 39.4525C215.484 39.3879 215.419 39.3233 215.419 39.2586C215.419 39.194 215.419 39.1294 215.419 39.0648L215.677 38.4188C215.677 38.3541 215.742 38.2895 215.742 38.2895C215.742 38.2249 215.806 38.1603 215.806 38.1603C215.806 38.0957 215.871 38.0311 215.871 37.9665C215.871 37.9019 215.871 37.9019 215.936 37.8373C215.871 37.8373 215.806 37.9019 215.742 37.9019C215.677 37.9019 215.677 37.9019 215.613 37.9665C215.419 38.0311 215.226 38.1603 215.097 38.2249C214.968 38.2895 214.774 38.4188 214.645 38.4834C214.516 38.548 214.387 38.6772 214.194 38.7418C214.065 38.8064 213.936 38.9356 213.742 39.0002C213.677 39.0002 213.613 39.0648 213.548 39.1294C213.484 39.1294 213.355 39.1294 213.29 39.1294C213.226 39.1294 213.161 39.0648 213.097 39.0002C213.097 38.9356 213.097 38.871 213.097 38.871C213.097 38.8064 213.161 38.7418 213.226 38.6126C213.29 38.4834 213.29 38.3541 213.355 38.2895C213.419 38.1603 213.419 38.0957 213.484 37.9665C213.548 37.9019 213.548 37.8373 213.548 37.8373C213.613 37.7727 213.742 37.7727 213.806 37.7727C213.936 37.7727 214 37.8373 214 37.9665C213.936 38.0311 213.936 38.0957 213.936 38.2249C213.936 38.2895 213.871 38.3541 213.871 38.4834C213.871 38.4834 213.806 38.548 213.806 38.6772C214.065 38.4834 214.323 38.3541 214.581 38.1603C214.839 38.0311 215.161 37.9019 215.484 37.7081C215.548 37.7081 215.613 37.6435 215.677 37.6435C215.742 37.5789 215.871 37.5789 215.936 37.5789C216.065 37.5789 216.129 37.5789 216.258 37.6435C216.323 37.7081 216.387 37.7081 216.387 37.7727C216.387 37.8373 216.452 37.9019 216.452 37.9019C216.452 37.9665 216.452 38.0311 216.452 38.0311C216.387 38.1603 216.387 38.2895 216.323 38.4188C216.258 38.548 216.194 38.6772 216.129 38.8064C216.129 38.871 216.065 38.9356 216.065 39.0002C216.065 39.0648 216 39.1294 216 39.194C215.871 39.1294 215.871 39.1294 215.871 39.194Z" fill="#FBF8F3"/>
<path d="M218.968 38.8709C219.097 38.8063 219.226 38.7417 219.355 38.6125C219.484 38.4833 219.613 38.4833 219.613 38.4187C219.613 38.4187 219.677 38.3541 219.742 38.3541C219.806 38.2895 219.871 38.2249 219.935 38.1603C220 38.0957 220.065 38.0311 220.194 37.9018C220.129 37.8372 220 37.8372 219.871 37.8372C219.742 37.8372 219.677 37.8372 219.548 37.9018C219.226 37.9664 218.968 38.0957 218.774 38.2895C218.581 38.4187 218.452 38.6125 218.452 38.8063L218.516 39.0002C218.516 39.0648 218.581 39.0648 218.71 39.0648C218.774 39.0648 218.839 39.0002 218.903 39.0002C218.839 38.9356 218.903 38.8709 218.968 38.8709ZM219.29 40.3569C219.29 40.3569 218.323 40.8738 217.742 41.6491C217.484 41.9721 217.355 42.2951 217.355 42.6182C217.355 42.7474 217.548 42.8766 217.742 42.8766C218.516 42.489 219.355 40.6153 219.29 40.3569ZM223.29 37.8372C223.419 37.9018 223.484 37.9664 223.484 37.9664C223.484 38.0311 223.484 38.0311 223.355 38.1603C223.226 38.2249 220.194 39.9047 219.871 40.1631C219.871 40.2277 219.226 41.9721 218.774 42.489C218.645 42.6182 218 43.4581 217.226 43.1996C216.774 43.0704 216.839 42.1659 217.097 41.7137C217.742 40.8092 219.355 39.7754 219.419 39.7108C219.419 39.6462 220 38.7417 220.064 38.6125C220 38.6771 219.871 38.7417 219.806 38.7417C219.742 38.8063 219.677 38.8709 219.548 38.8709C219.484 38.9356 219.419 38.9356 219.29 39.0002C219.161 39.0648 219.097 39.1294 218.968 39.1294C218.839 39.194 218.71 39.194 218.581 39.194C218.452 39.194 218.323 39.1294 218.194 39.0648C218 38.9356 217.871 38.7417 217.935 38.5479C218 38.3541 218.129 38.1603 218.194 38.0311C218.516 37.708 219.032 37.5142 219.677 37.4496C219.871 37.4496 220.065 37.4496 220.258 37.5142C220.323 37.5142 220.323 37.5142 220.387 37.5788L220.452 37.5142C220.452 37.5142 220.839 36.9973 220.903 36.9327C220.968 36.8035 221.097 36.8035 221.29 36.8681C221.484 36.9327 221.548 36.9973 221.484 37.0619C221.161 37.385 220.129 38.7417 220 39.3878C220.129 39.4524 223.032 37.9664 223.29 37.8372Z" fill="#FBF8F3"/>
<path d="M171.871 31.635H171.935C172.322 31.635 172.58 31.1827 172.322 30.8597L167.161 23.8821C167.032 23.6883 167.032 23.4298 167.161 23.3006L171.935 16.8399C172.193 16.5169 171.935 16.0646 171.548 16.0646C171.419 16.0646 171.226 16.1292 171.161 16.2584L166.709 22.2669C166.451 22.4607 166.064 22.4607 165.871 22.2023L161.419 16.1938C161.355 16.0646 161.161 16 161.032 16H160.903C160.516 16 160.258 16.4523 160.516 16.7753L165.29 23.236C165.419 23.4298 165.419 23.6883 165.29 23.8175L160.129 30.8597C159.871 31.1827 160.129 31.635 160.516 31.635H160.58C160.709 31.635 160.903 31.5704 160.967 31.4411L165.806 24.9804C166 24.722 166.387 24.722 166.645 24.9804L171.484 31.5058C171.548 31.5704 171.677 31.635 171.871 31.635Z" fill="#F5CC82"/>
<path d="M177.806 31.1181C177.806 31.4411 178 31.635 178.323 31.635H187.419C187.677 31.635 187.935 31.4411 187.935 31.1181C187.935 30.8597 187.742 30.6012 187.419 30.6012H178.258C178 30.6012 177.806 30.8597 177.806 31.1181ZM187.419 16H178.258C178 16 177.742 16.1938 177.742 16.5169C177.742 16.7753 177.935 17.0337 178.258 17.0337H187.355C187.613 17.0337 187.871 16.8399 187.871 16.5169C187.935 16.1938 187.677 16 187.419 16ZM187.419 23.1714H178.258C178 23.1714 177.742 23.3652 177.742 23.6883C177.742 24.0113 177.935 24.2051 178.258 24.2051H187.355C187.613 24.2051 187.871 24.0113 187.871 23.6883C187.871 23.3652 187.677 23.1714 187.419 23.1714Z" fill="#F5CC82"/>
<path d="M205.161 17.4214C204.064 16.4523 202.516 16 200.516 16H195.419C195.161 16 194.903 16.1938 194.903 16.5169C194.903 16.7753 195.097 17.0337 195.419 17.0337H200.516C202.194 17.0337 203.419 17.4214 204.323 18.132C205.226 18.8427 205.613 19.941 205.613 21.2332C205.613 22.5899 205.161 23.6237 204.323 24.3343C203.419 25.045 202.129 25.4327 200.516 25.4327H195.419C195.161 25.4327 194.903 25.6265 194.903 25.9495V31.1181C194.903 31.3765 195.097 31.635 195.419 31.635H195.548C195.806 31.635 196.064 31.4411 196.064 31.1181V26.9832C196.064 26.7248 196.258 26.4664 196.581 26.4664H200.516C202.452 26.4664 204 26.0141 205.161 25.1096C206.258 24.1405 206.839 22.913 206.839 21.2332C206.839 19.618 206.258 18.3259 205.161 17.4214Z" fill="#F5CC82"/>
<path d="M223.097 17.4214C221.935 16.4523 220.387 16 218.452 16H213.355C213.097 16 212.839 16.1938 212.839 16.5169C212.839 16.7753 213.032 17.0337 213.355 17.0337H218.452C220.129 17.0337 221.355 17.4214 222.258 18.132C223.161 18.8427 223.548 19.941 223.548 21.2332C223.548 22.5899 223.097 23.6237 222.258 24.3343C221.355 25.045 220.064 25.4327 218.452 25.4327H213.355C213.097 25.4327 212.839 25.6265 212.839 25.9495V31.1181C212.839 31.3765 213.032 31.635 213.355 31.635H213.484C213.742 31.635 214 31.4411 214 31.1181V26.9832C214 26.7248 214.194 26.4664 214.516 26.4664H218.452C220.387 26.4664 221.935 26.0141 223.097 25.1096C224.194 24.1405 224.774 22.913 224.774 21.2332C224.774 19.618 224.194 18.3259 223.097 17.4214Z" fill="#F5CC82"/>
<path d="M233.226 17.5506V31.1827C233.226 31.4411 233.419 31.6996 233.742 31.6996H233.871C234.129 31.6996 234.387 31.5058 234.387 31.1827V17.5506C234.387 17.2921 234.581 17.0337 234.903 17.0337H239.548C239.806 17.0337 240.065 16.8399 240.065 16.5169C240.065 16.2584 239.871 16 239.548 16H228.129C227.871 16 227.613 16.1938 227.613 16.5169C227.613 16.7753 227.806 17.0337 228.129 17.0337H232.774C233.032 17.0337 233.226 17.2275 233.226 17.5506Z" fill="#F5CC82"/>
</g>
</g>
<defs>
<clipPath id="clip0_1_712">
<rect width="256" height="160" rx="15" fill="white"/>
</clipPath>
<clipPath id="clip1_1_712">
<rect width="50" height="15.8333" fill="white" transform="translate(192 129)"/>
</clipPath>
<clipPath id="clip2_1_712">
<rect width="80" height="27.7165" fill="white" transform="translate(160 16)"/>
</clipPath>
</defs>
</svg>
